<?xml version="1.0" standalone="no"?>
<!DOCTYPE svg PUBLIC "-//W3C//DTD SVG 20010904//EN"
 "http://www.w3.org/TR/2001/REC-SVG-20010904/DTD/svg10.dtd">
<svg version="1.0" xmlns="http://www.w3.org/2000/svg"
 width="1000.000000pt" height="1000.000000pt" viewBox="0 0 1000.000000 1000.000000"
 preserveAspectRatio="xMidYMid meet">
<metadata>
Created by potrace 1.14, written by Peter Selinger 2001-2017
</metadata>
<g transform="translate(0.000000,1000.000000) scale(0.100000,-0.100000)"
fill="#000000" stroke="none">
<path d="M1449 9996 c-2 -2 -70 -7 -150 -10 -81 -4 -155 -8 -165 -10 -11 -2
-48 -7 -84 -10 -36 -4 -77 -9 -90 -11 -14 -3 -38 -7 -55 -9 -66 -9 -211 -48
-282 -76 -122 -49 -212 -108 -298 -194 -89 -90 -151 -185 -197 -303 -29 -76
-72 -248 -82 -328 -2 -22 -7 -58 -10 -80 -11 -77 -16 -141 -24 -270 -10 -178
-9 -7215 1 -7390 8 -142 9 -153 22 -260 40 -352 132 -575 304 -738 27 -26 52
-47 56 -47 3 0 18 -11 33 -25 36 -33 189 -107 277 -134 106 -31 225 -55 341
-66 32 -4 70 -8 84 -10 98 -17 719 -20 3860 -20 3141 0 3773 3 3870 19 14 3
57 7 95 11 39 3 79 8 90 10 11 3 36 7 55 9 68 10 233 57 303 86 109 47 186 98
268 180 138 137 217 293 263 525 23 117 25 133 32 205 3 36 7 75 10 87 16 80
19 675 19 3853 0 3139 -3 3723 -20 3881 -5 51 -14 125 -21 179 -10 77 -54 252
-81 320 -134 340 -406 529 -838 585 -22 2 -49 7 -60 9 -11 2 -63 7 -115 11
-52 4 -113 10 -135 13 -45 6 -7270 14 -7276 8z"/>
</g>
</svg>
